<svg id="svg" version="1.1" xmlns="http://www.w3.org/2000/svg" xmlns:xlink="http://www.w3.org/1999/xlink" width="400" height="118.49427168576105" viewBox="0, 0, 400,118.49427168576105"><g id="svgg"><path id="path0" d="M37.601 8.930 C 37.546 9.075,37.500 15.698,37.500 23.647 C 37.500 39.318,37.552 38.500,36.550 38.500 C 36.247 38.500,36.000 38.575,36.000 38.667 C 36.000 38.758,35.736 38.833,35.414 38.833 C 35.092 38.833,34.699 38.904,34.539 38.990 C 34.290 39.125,33.613 39.310,33.209 39.353 C 33.140 39.360,32.933 39.449,32.750 39.550 C 32.567 39.651,32.323 39.750,32.209 39.769 C 31.787 39.840,28.902 41.072,28.474 41.364 C 28.231 41.531,27.931 41.672,27.808 41.679 C 27.684 41.686,27.358 41.835,27.083 42.010 C 26.808 42.186,26.415 42.418,26.208 42.525 C 26.002 42.632,25.833 42.783,25.833 42.860 C 25.833 42.937,25.753 43.000,25.655 43.000 C 25.444 43.000,23.941 44.004,23.861 44.199 C 23.831 44.273,23.718 44.333,23.611 44.334 C 23.504 44.334,23.199 44.521,22.932 44.750 C 22.666 44.979,22.387 45.167,22.313 45.167 C 22.239 45.167,21.915 45.429,21.594 45.750 C 21.274 46.071,20.961 46.333,20.900 46.333 C 20.839 46.333,20.493 46.615,20.131 46.958 C 18.013 48.970,17.167 49.817,17.167 49.927 C 17.167 49.994,16.923 50.298,16.625 50.601 C 15.860 51.379,15.667 51.627,15.667 51.832 C 15.667 51.930,15.555 52.053,15.418 52.106 C 15.281 52.159,15.210 52.269,15.261 52.351 C 15.312 52.433,15.292 52.501,15.218 52.501 C 15.144 52.502,14.897 52.783,14.668 53.126 C 14.440 53.469,14.215 53.788,14.168 53.833 C 14.004 53.994,13.478 54.920,13.387 55.208 C 13.336 55.369,13.228 55.500,13.147 55.500 C 13.066 55.500,13.000 55.612,13.000 55.750 C 13.000 55.887,12.925 56.000,12.833 56.000 C 12.742 56.000,12.667 56.112,12.667 56.250 C 12.667 56.387,12.592 56.500,12.500 56.500 C 12.408 56.500,12.333 56.650,12.333 56.833 C 12.333 57.017,12.258 57.167,12.167 57.167 C 12.075 57.167,12.000 57.310,12.000 57.486 C 12.000 57.662,11.943 57.831,11.873 57.861 C 11.683 57.944,10.333 60.734,10.333 61.045 C 10.333 61.193,10.258 61.360,10.167 61.417 C 10.075 61.473,10.000 61.703,10.000 61.927 C 10.000 62.150,9.925 62.333,9.833 62.333 C 9.742 62.333,9.667 62.558,9.667 62.833 C 9.667 63.108,9.592 63.333,9.500 63.333 C 9.408 63.333,9.333 63.554,9.333 63.823 C 9.333 64.093,9.258 64.360,9.167 64.417 C 9.075 64.473,9.000 64.773,9.000 65.083 C 9.000 65.393,8.925 65.693,8.833 65.750 C 8.742 65.807,8.667 66.069,8.667 66.333 C 8.667 66.598,8.592 66.860,8.500 66.917 C 8.408 66.973,8.333 67.423,8.333 67.917 C 8.333 68.410,8.258 68.860,8.167 68.917 C 8.075 68.973,8.000 69.648,8.000 70.417 C 8.000 71.185,7.927 71.859,7.838 71.914 C 7.526 72.107,7.613 111.756,7.926 112.069 C 8.160 112.302,9.058 112.333,15.595 112.333 L 23.000 112.333 23.000 92.500 C 23.000 79.389,23.056 72.667,23.167 72.667 C 23.261 72.667,23.333 72.194,23.333 71.583 C 23.333 70.972,23.406 70.500,23.500 70.500 C 23.592 70.500,23.667 70.158,23.667 69.740 C 23.667 69.276,23.732 69.020,23.833 69.083 C 23.933 69.145,24.000 68.946,24.000 68.593 C 24.000 68.267,24.075 68.000,24.167 68.000 C 24.258 68.000,24.333 67.813,24.333 67.583 C 24.333 67.354,24.408 67.167,24.500 67.167 C 24.592 67.167,24.667 66.979,24.667 66.750 C 24.667 66.521,24.742 66.333,24.833 66.333 C 24.925 66.333,25.000 66.146,25.000 65.917 C 25.000 65.688,25.075 65.500,25.167 65.500 C 25.258 65.500,25.333 65.350,25.333 65.167 C 25.333 64.983,25.408 64.833,25.500 64.833 C 25.592 64.833,25.667 64.683,25.667 64.500 C 25.667 64.317,25.742 64.167,25.833 64.167 C 25.925 64.167,26.000 64.073,26.001 63.958 C 26.001 63.844,26.301 63.355,26.667 62.872 C 27.034 62.389,27.333 61.920,27.333 61.831 C 27.333 61.742,27.483 61.576,27.667 61.461 C 27.850 61.347,28.000 61.200,28.000 61.134 C 28.000 61.069,28.169 60.839,28.375 60.625 C 28.581 60.410,28.984 59.975,29.271 59.659 C 30.076 58.770,31.664 57.333,31.841 57.333 C 31.928 57.333,32.000 57.258,32.000 57.167 C 32.000 57.075,32.096 57.000,32.213 57.000 C 32.330 57.000,32.535 56.850,32.667 56.667 C 32.799 56.483,33.006 56.333,33.127 56.333 C 33.248 56.333,33.508 56.183,33.705 56.000 C 33.902 55.817,34.161 55.667,34.281 55.667 C 34.402 55.667,34.500 55.592,34.500 55.500 C 34.500 55.408,34.644 55.333,34.819 55.333 C 34.995 55.333,35.164 55.277,35.194 55.208 C 35.244 55.097,36.437 54.606,37.208 54.380 C 37.452 54.309,37.746 77.278,37.520 78.708 C 37.509 78.777,37.569 78.833,37.654 78.833 C 37.739 78.833,37.849 79.452,37.898 80.208 C 38.042 82.442,38.186 83.573,38.348 83.742 C 38.432 83.829,38.500 84.077,38.500 84.294 C 38.500 84.511,38.573 84.825,38.663 84.992 C 38.752 85.160,38.843 85.524,38.864 85.803 C 38.885 86.082,38.962 86.274,39.035 86.229 C 39.107 86.184,39.167 86.372,39.167 86.647 C 39.167 86.922,39.242 87.193,39.333 87.250 C 39.425 87.307,39.500 87.574,39.500 87.843 C 39.500 88.113,39.575 88.333,39.667 88.333 C 39.758 88.333,39.833 88.479,39.833 88.657 C 39.833 88.835,39.908 89.027,40.000 89.083 C 40.092 89.140,40.167 89.369,40.167 89.593 C 40.167 89.817,40.242 90.000,40.333 90.000 C 40.425 90.000,40.500 90.150,40.500 90.333 C 40.500 90.517,40.575 90.667,40.667 90.667 C 40.758 90.667,40.833 90.781,40.833 90.920 C 40.833 91.318,42.150 94.000,42.345 94.000 C 42.441 94.000,42.477 94.069,42.425 94.153 C 42.373 94.238,42.443 94.420,42.582 94.558 C 42.720 94.696,42.833 94.881,42.833 94.969 C 42.833 95.142,44.260 97.278,44.615 97.637 C 44.735 97.758,44.833 97.917,44.833 97.991 C 44.833 98.065,45.096 98.411,45.417 98.762 C 45.737 99.112,46.000 99.456,46.000 99.526 C 46.000 99.596,46.300 99.951,46.667 100.314 C 47.033 100.677,47.333 101.019,47.333 101.075 C 47.333 101.130,47.840 101.654,48.458 102.239 C 50.166 103.852,50.552 104.200,51.341 104.833 C 51.740 105.154,52.305 105.623,52.597 105.875 C 52.889 106.127,53.195 106.333,53.277 106.333 C 53.359 106.333,53.535 106.483,53.667 106.667 C 53.799 106.850,54.040 107.000,54.203 107.000 C 54.367 107.000,54.500 107.075,54.500 107.167 C 54.500 107.258,54.612 107.333,54.750 107.333 C 54.887 107.333,55.000 107.394,55.000 107.469 C 55.000 107.543,55.262 107.707,55.583 107.833 C 55.904 107.959,56.167 108.112,56.167 108.173 C 56.167 108.234,56.673 108.538,57.292 108.849 C 57.910 109.161,58.442 109.472,58.472 109.541 C 58.503 109.610,58.672 109.667,58.847 109.667 C 59.023 109.667,59.167 109.742,59.167 109.833 C 59.167 109.925,59.312 110.000,59.490 110.000 C 59.668 110.000,59.860 110.075,59.917 110.167 C 59.973 110.258,60.203 110.333,60.427 110.333 C 60.650 110.333,60.833 110.408,60.833 110.500 C 60.833 110.592,60.949 110.667,61.091 110.667 C 61.233 110.667,61.660 110.817,62.039 111.000 C 62.419 111.183,62.861 111.333,63.021 111.333 C 63.182 111.333,63.360 111.408,63.417 111.500 C 63.473 111.592,63.736 111.667,64.000 111.667 C 64.264 111.667,64.522 111.734,64.572 111.816 C 64.623 111.898,64.946 112.003,65.291 112.049 C 65.635 112.095,66.217 112.224,66.583 112.336 C 66.950 112.448,67.625 112.576,68.083 112.620 C 68.542 112.665,68.992 112.758,69.083 112.828 C 69.175 112.898,69.840 112.971,70.561 112.989 C 71.282 113.008,72.036 113.085,72.238 113.162 C 72.775 113.366,81.691 113.379,82.224 113.177 L 82.667 113.008 82.667 92.421 C 82.667 78.807,82.610 71.833,82.500 71.833 C 82.402 71.833,82.333 71.253,82.333 70.427 C 82.333 69.653,82.258 68.973,82.167 68.917 C 82.075 68.860,82.000 68.448,82.000 68.000 C 82.000 67.552,81.925 67.140,81.833 67.083 C 81.742 67.027,81.667 66.689,81.667 66.333 C 81.667 65.977,81.592 65.640,81.500 65.583 C 81.408 65.527,81.333 65.264,81.333 65.000 C 81.333 64.736,81.258 64.473,81.167 64.417 C 81.075 64.360,81.000 64.093,81.000 63.823 C 81.000 63.554,80.925 63.333,80.833 63.333 C 80.742 63.333,80.667 63.108,80.667 62.833 C 80.667 62.558,80.592 62.333,80.500 62.333 C 80.408 62.333,80.333 62.108,80.333 61.833 C 80.333 61.558,80.258 61.333,80.167 61.333 C 80.075 61.333,80.000 61.183,80.000 61.000 C 80.000 60.817,79.925 60.667,79.833 60.667 C 79.742 60.667,79.667 60.521,79.667 60.343 C 79.667 60.165,79.592 59.973,79.500 59.917 C 79.408 59.860,79.333 59.668,79.333 59.490 C 79.333 59.312,79.258 59.167,79.167 59.167 C 79.075 59.167,79.000 59.017,79.000 58.833 C 79.000 58.650,78.925 58.500,78.833 58.500 C 78.742 58.500,78.667 58.350,78.667 58.167 C 78.667 57.983,78.592 57.833,78.500 57.833 C 78.408 57.833,78.333 57.680,78.333 57.493 C 78.333 57.306,78.183 56.992,78.000 56.795 C 77.817 56.598,77.667 56.301,77.667 56.135 C 77.667 55.969,77.604 55.833,77.528 55.833 C 77.452 55.833,77.283 55.627,77.153 55.375 C 77.023 55.123,76.785 54.771,76.625 54.594 C 76.465 54.416,76.333 54.177,76.333 54.064 C 76.333 53.950,76.238 53.758,76.122 53.637 C 76.006 53.516,75.489 52.852,74.974 52.162 C 73.570 50.282,68.541 45.333,68.035 45.333 C 67.965 45.333,67.799 45.183,67.667 45.000 C 67.535 44.817,67.337 44.667,67.227 44.667 C 67.117 44.667,67.003 44.604,66.972 44.526 C 66.907 44.362,64.640 42.862,63.915 42.504 C 63.641 42.368,63.135 42.086,62.792 41.877 C 62.448 41.667,62.167 41.540,62.167 41.593 C 62.167 41.647,62.048 41.572,61.903 41.427 C 61.758 41.282,61.571 41.206,61.487 41.258 C 61.402 41.310,61.333 41.274,61.333 41.177 C 61.333 41.079,61.183 41.000,61.000 41.000 C 60.817 41.000,60.667 40.925,60.667 40.833 C 60.667 40.742,60.517 40.667,60.333 40.667 C 60.150 40.667,60.000 40.600,60.000 40.519 C 60.000 40.437,59.719 40.318,59.375 40.253 C 59.031 40.189,58.563 40.037,58.333 39.915 C 57.615 39.534,56.510 39.167,56.080 39.167 C 55.853 39.167,55.667 39.092,55.667 39.000 C 55.667 38.908,55.409 38.833,55.093 38.833 C 54.778 38.833,54.473 38.758,54.417 38.667 C 54.360 38.575,53.981 38.500,53.573 38.500 L 52.833 38.500 52.833 23.783 C 52.833 12.559,52.786 9.019,52.633 8.867 C 52.290 8.523,37.734 8.585,37.601 8.930 M53.333 54.440 C 53.333 54.384,53.577 54.487,53.875 54.668 C 54.173 54.850,54.585 54.999,54.792 54.999 C 54.998 55.000,55.167 55.063,55.167 55.140 C 55.167 55.218,55.523 55.461,55.958 55.682 C 56.394 55.903,56.775 56.140,56.806 56.208 C 56.836 56.277,56.967 56.333,57.097 56.333 C 57.227 56.333,57.333 56.408,57.333 56.500 C 57.333 56.592,57.446 56.667,57.583 56.667 C 57.721 56.667,57.833 56.730,57.833 56.807 C 57.833 56.884,58.012 57.028,58.231 57.128 C 58.872 57.420,61.667 59.980,61.667 60.275 C 61.667 60.358,61.823 60.537,62.014 60.672 C 62.205 60.806,62.463 61.104,62.587 61.333 C 62.710 61.563,62.985 61.938,63.198 62.167 C 63.410 62.396,63.765 62.940,63.985 63.375 C 64.205 63.810,64.449 64.167,64.526 64.167 C 64.603 64.167,64.667 64.317,64.667 64.500 C 64.667 64.683,64.742 64.833,64.833 64.833 C 64.925 64.833,65.000 64.983,65.000 65.167 C 65.000 65.350,65.075 65.500,65.167 65.500 C 65.258 65.500,65.333 65.650,65.333 65.833 C 65.333 66.017,65.408 66.167,65.500 66.167 C 65.592 66.167,65.667 66.318,65.667 66.502 C 65.667 66.687,65.742 66.987,65.833 67.169 C 65.925 67.351,66.075 67.649,66.167 67.831 C 66.258 68.013,66.333 68.346,66.333 68.571 C 66.333 68.796,66.408 69.027,66.500 69.083 C 66.592 69.140,66.667 69.444,66.667 69.760 C 66.667 70.075,66.742 70.333,66.833 70.333 C 66.927 70.333,67.000 70.802,67.000 71.407 C 67.000 71.997,67.075 72.527,67.167 72.583 C 67.275 72.651,67.329 76.862,67.320 84.718 C 67.313 91.336,67.269 96.656,67.223 96.542 C 67.177 96.427,66.920 96.333,66.653 96.333 C 66.385 96.333,66.167 96.277,66.167 96.207 C 66.167 96.138,65.923 95.983,65.625 95.863 C 65.327 95.743,64.933 95.561,64.750 95.458 C 64.567 95.356,64.218 95.172,63.976 95.049 C 63.733 94.927,63.443 94.715,63.330 94.580 C 63.218 94.444,63.023 94.333,62.896 94.333 C 62.770 94.333,62.667 94.258,62.667 94.167 C 62.667 94.075,62.580 94.000,62.473 94.000 C 61.434 94.000,57.225 89.568,55.825 87.000 C 55.601 86.587,55.379 86.212,55.333 86.167 C 55.105 85.939,54.500 84.596,54.500 84.318 C 54.500 84.143,54.425 84.000,54.333 84.000 C 54.242 84.000,54.167 83.817,54.167 83.593 C 54.167 83.369,54.092 83.140,54.000 83.083 C 53.908 83.027,53.833 82.797,53.833 82.573 C 53.833 82.350,53.758 82.167,53.667 82.167 C 53.575 82.167,53.500 81.904,53.500 81.583 C 53.500 81.262,53.425 81.000,53.333 81.000 C 53.242 81.000,53.167 80.625,53.167 80.167 C 53.167 79.708,53.092 79.333,53.000 79.333 C 52.890 79.333,52.833 75.021,52.833 66.730 C 52.833 55.545,52.861 54.149,53.083 54.333 C 53.221 54.447,53.333 54.495,53.333 54.440 " stroke="none" fill="#1cb484" fill-rule="evenodd"></path><path id="path1" d="M248.000 51.333 C 248.000 51.425,247.775 51.500,247.500 51.500 C 247.225 51.500,247.000 51.575,247.000 51.667 C 247.000 51.758,246.884 51.833,246.742 51.833 C 246.409 51.833,245.667 52.576,245.667 52.909 C 245.667 53.051,245.592 53.167,245.500 53.167 C 245.142 53.167,245.297 56.567,245.667 56.833 C 245.850 56.965,246.000 57.207,246.000 57.370 C 246.000 57.543,246.123 57.667,246.297 57.667 C 246.460 57.667,246.701 57.817,246.833 58.000 C 247.049 58.299,247.265 58.333,248.917 58.333 C 250.569 58.333,250.785 58.299,251.000 58.000 C 251.132 57.817,251.374 57.667,251.537 57.667 C 251.710 57.667,251.833 57.543,251.833 57.370 C 251.833 57.207,251.983 56.965,252.167 56.833 C 252.537 56.567,252.691 53.167,252.333 53.167 C 252.242 53.167,252.167 53.051,252.167 52.909 C 252.167 52.576,251.424 51.833,251.091 51.833 C 250.949 51.833,250.833 51.758,250.833 51.667 C 250.833 51.575,250.646 51.500,250.417 51.500 C 250.188 51.500,250.000 51.425,250.000 51.333 C 250.000 51.241,249.556 51.167,249.000 51.167 C 248.444 51.167,248.000 51.241,248.000 51.333 M114.500 73.083 L 114.500 91.667 117.250 91.667 L 120.000 91.667 120.000 78.417 C 120.000 71.129,120.040 65.167,120.089 65.167 C 120.259 65.167,121.333 66.324,121.333 66.508 C 121.333 66.609,121.633 66.981,122.000 67.333 C 122.367 67.686,122.667 68.062,122.667 68.170 C 122.667 68.278,122.881 68.566,123.142 68.810 C 123.403 69.054,123.734 69.478,123.877 69.752 C 124.020 70.026,124.369 70.470,124.652 70.740 C 124.935 71.009,125.167 71.296,125.167 71.378 C 125.167 71.459,125.467 71.814,125.833 72.167 C 126.200 72.519,126.500 72.894,126.500 73.000 C 126.500 73.106,126.800 73.481,127.167 73.833 C 127.533 74.186,127.833 74.560,127.833 74.664 C 127.833 74.769,128.208 75.220,128.667 75.667 C 129.125 76.113,129.500 76.564,129.500 76.669 C 129.500 76.774,129.800 77.148,130.167 77.500 C 130.533 77.852,130.833 78.212,130.833 78.300 C 130.833 78.388,131.133 78.769,131.500 79.147 C 131.867 79.525,132.167 79.895,132.167 79.970 C 132.167 80.045,132.335 80.265,132.542 80.458 C 133.032 80.918,133.241 81.183,133.505 81.677 C 133.624 81.901,133.935 82.282,134.194 82.525 C 134.454 82.768,134.667 83.040,134.667 83.130 C 134.667 83.220,134.967 83.602,135.333 83.980 C 135.700 84.358,136.000 84.734,136.000 84.817 C 136.000 84.899,136.375 85.349,136.833 85.817 C 137.292 86.285,137.667 86.734,137.667 86.814 C 137.667 86.894,137.967 87.269,138.333 87.647 C 138.700 88.025,139.000 88.377,139.000 88.430 C 139.000 88.483,139.300 88.814,139.667 89.167 C 140.033 89.519,140.333 89.890,140.333 89.991 C 140.333 90.093,140.669 90.511,141.079 90.921 L 141.825 91.667 144.162 91.667 L 146.500 91.667 146.500 73.083 L 146.500 54.500 143.750 54.500 L 141.000 54.500 140.995 67.958 C 140.991 78.176,140.944 81.336,140.798 81.083 C 140.693 80.900,140.395 80.551,140.137 80.308 C 139.878 80.065,139.667 79.793,139.667 79.703 C 139.667 79.614,139.367 79.231,139.000 78.853 C 138.633 78.475,138.333 78.100,138.333 78.020 C 138.333 77.939,138.033 77.564,137.667 77.187 C 137.300 76.809,137.000 76.419,137.000 76.320 C 137.000 76.221,136.700 75.852,136.333 75.500 C 135.967 75.148,135.667 74.788,135.667 74.700 C 135.667 74.612,135.367 74.231,135.000 73.853 C 134.633 73.475,134.333 73.123,134.333 73.070 C 134.333 73.017,134.033 72.686,133.667 72.333 C 133.300 71.981,133.000 71.609,133.000 71.508 C 133.000 71.406,132.756 71.066,132.458 70.754 C 131.832 70.096,131.686 69.914,131.294 69.302 C 131.136 69.056,130.818 68.666,130.587 68.435 C 130.356 68.204,130.167 67.946,130.167 67.861 C 130.167 67.776,129.867 67.398,129.500 67.020 C 129.133 66.642,128.833 66.267,128.833 66.187 C 128.833 66.106,128.533 65.731,128.167 65.353 C 127.800 64.975,127.500 64.623,127.500 64.570 C 127.500 64.517,127.200 64.186,126.833 63.833 C 126.467 63.481,126.167 63.106,126.167 63.000 C 126.167 62.894,125.867 62.519,125.500 62.167 C 125.133 61.814,124.833 61.440,124.833 61.336 C 124.833 61.231,124.458 60.780,124.000 60.333 C 123.542 59.887,123.167 59.439,123.167 59.337 C 123.167 59.139,123.100 59.046,122.334 58.191 C 122.059 57.883,121.833 57.583,121.832 57.524 C 121.831 57.465,121.569 57.140,121.249 56.803 C 120.929 56.465,120.667 56.144,120.667 56.090 C 120.667 56.036,120.331 55.656,119.921 55.246 L 119.175 54.500 116.838 54.500 L 114.500 54.500 114.500 73.083 M189.000 60.163 L 189.000 63.333 186.583 63.333 L 184.167 63.333 184.167 65.583 L 184.167 67.833 186.583 67.833 L 189.000 67.833 189.000 77.000 C 189.000 83.000,189.058 86.167,189.167 86.167 C 189.258 86.167,189.333 86.385,189.333 86.651 C 189.333 87.659,191.956 91.000,192.747 91.000 C 192.886 91.000,193.000 91.075,193.000 91.167 C 193.000 91.258,193.225 91.333,193.500 91.333 C 193.775 91.333,194.000 91.408,194.000 91.500 C 194.000 91.592,194.225 91.667,194.500 91.667 C 194.775 91.667,195.000 91.742,195.000 91.833 C 195.000 91.938,196.139 92.000,198.083 92.000 C 200.028 92.000,201.167 91.938,201.167 91.833 C 201.167 91.742,201.392 91.667,201.667 91.667 C 201.942 91.667,202.167 91.592,202.167 91.500 C 202.167 91.408,202.302 91.333,202.467 91.333 C 202.839 91.333,203.664 90.961,203.665 90.792 C 203.666 90.723,203.747 90.667,203.845 90.667 C 204.184 90.667,204.500 90.189,204.500 89.679 C 204.500 89.397,204.425 89.167,204.333 89.167 C 204.242 89.167,204.167 88.984,204.167 88.760 C 204.167 88.536,204.092 88.307,204.000 88.250 C 203.908 88.193,203.833 88.001,203.833 87.823 C 203.833 87.646,203.758 87.500,203.667 87.500 C 203.575 87.500,203.500 87.350,203.500 87.167 C 203.500 86.983,203.430 86.833,203.344 86.833 C 203.259 86.833,203.165 86.627,203.136 86.375 C 203.068 85.781,202.441 85.658,202.011 86.154 C 201.846 86.344,201.588 86.500,201.439 86.500 C 201.289 86.500,201.167 86.575,201.167 86.667 C 201.167 86.758,201.017 86.833,200.833 86.833 C 200.650 86.833,200.500 86.908,200.500 87.000 C 200.500 87.100,199.833 87.167,198.833 87.167 C 197.833 87.167,197.167 87.100,197.167 87.000 C 197.167 86.908,197.017 86.833,196.833 86.833 C 196.650 86.833,196.500 86.758,196.500 86.667 C 196.500 86.575,196.382 86.500,196.238 86.500 C 195.879 86.500,195.579 86.169,195.442 85.623 C 195.379 85.372,195.253 85.167,195.163 85.167 C 195.074 85.167,195.000 84.984,195.000 84.760 C 195.000 84.536,194.925 84.307,194.833 84.250 C 194.726 84.184,194.667 81.248,194.667 75.990 L 194.667 67.833 198.750 67.833 L 202.833 67.833 202.833 65.583 L 202.833 63.333 198.754 63.333 L 194.674 63.333 194.629 60.208 L 194.583 57.083 191.792 57.038 L 189.000 56.992 189.000 60.163 M166.167 62.833 C 166.167 62.934,165.444 63.000,164.333 63.000 C 163.222 63.000,162.500 63.066,162.500 63.167 C 162.500 63.258,162.200 63.333,161.833 63.333 C 161.467 63.333,161.167 63.408,161.167 63.500 C 161.167 63.592,160.904 63.667,160.583 63.667 C 160.262 63.667,160.000 63.742,160.000 63.833 C 160.000 63.925,159.775 64.000,159.500 64.000 C 159.225 64.000,159.000 64.068,159.000 64.152 C 159.000 64.236,158.700 64.355,158.333 64.417 C 157.967 64.479,157.667 64.598,157.667 64.681 C 157.667 64.765,157.517 64.833,157.333 64.833 C 157.150 64.833,157.000 64.908,157.000 65.000 C 157.000 65.092,156.902 65.167,156.781 65.167 C 156.661 65.167,156.402 65.317,156.205 65.500 C 156.008 65.683,155.764 65.833,155.662 65.833 C 154.997 65.833,154.745 67.242,155.333 67.667 C 155.517 67.799,155.667 68.040,155.667 68.203 C 155.667 68.367,155.742 68.500,155.833 68.500 C 155.925 68.500,156.000 68.650,156.000 68.833 C 156.000 69.017,156.075 69.167,156.167 69.167 C 156.258 69.167,156.333 69.317,156.333 69.500 C 156.333 69.683,156.408 69.833,156.500 69.833 C 156.592 69.833,156.667 69.951,156.667 70.095 C 156.667 70.239,156.774 70.464,156.905 70.595 C 157.175 70.866,158.000 70.920,158.000 70.667 C 158.000 70.575,158.078 70.500,158.174 70.500 C 158.269 70.500,158.508 70.350,158.705 70.167 C 158.902 69.983,159.161 69.833,159.281 69.833 C 159.402 69.833,159.500 69.758,159.500 69.667 C 159.500 69.575,159.650 69.500,159.833 69.500 C 160.017 69.500,160.167 69.425,160.167 69.333 C 160.167 69.242,160.317 69.167,160.500 69.167 C 160.683 69.167,160.833 69.092,160.833 69.000 C 160.833 68.908,160.983 68.833,161.167 68.833 C 161.350 68.833,161.500 68.758,161.500 68.667 C 161.500 68.575,161.800 68.500,162.167 68.500 C 162.533 68.500,162.833 68.425,162.833 68.333 C 162.833 68.242,163.133 68.167,163.500 68.167 C 163.867 68.167,164.167 68.092,164.167 68.000 C 164.167 67.898,164.944 67.833,166.167 67.833 C 167.389 67.833,168.167 67.898,168.167 68.000 C 168.167 68.092,168.425 68.167,168.740 68.167 C 169.056 68.167,169.360 68.242,169.417 68.333 C 169.473 68.425,169.665 68.500,169.843 68.500 C 170.021 68.500,170.167 68.557,170.167 68.626 C 170.167 68.695,170.407 68.859,170.702 68.989 C 171.387 69.292,172.208 70.113,172.511 70.798 C 172.641 71.093,172.805 71.333,172.874 71.333 C 172.943 71.333,173.000 71.483,173.000 71.667 C 173.000 71.850,173.075 72.000,173.167 72.000 C 173.262 72.000,173.333 72.500,173.333 73.167 C 173.333 73.833,173.405 74.333,173.500 74.333 C 173.592 74.333,173.667 74.483,173.667 74.667 C 173.667 74.993,173.556 75.000,168.583 75.000 C 165.306 75.000,163.500 75.059,163.500 75.167 C 163.500 75.261,163.031 75.333,162.427 75.333 C 161.836 75.333,161.307 75.408,161.250 75.500 C 161.193 75.592,160.889 75.667,160.573 75.667 C 160.258 75.667,160.000 75.742,160.000 75.833 C 160.000 75.925,159.775 76.000,159.500 76.000 C 159.225 76.000,159.000 76.075,159.000 76.167 C 159.000 76.258,158.850 76.333,158.667 76.333 C 158.483 76.333,158.333 76.408,158.333 76.500 C 158.333 76.592,158.200 76.667,158.037 76.667 C 157.874 76.667,157.632 76.817,157.500 77.000 C 157.368 77.183,157.161 77.333,157.041 77.333 C 156.757 77.333,155.667 78.423,155.667 78.708 C 155.667 78.828,155.517 79.035,155.333 79.167 C 155.150 79.299,155.000 79.540,155.000 79.703 C 155.000 79.867,154.925 80.000,154.833 80.000 C 154.742 80.000,154.667 80.225,154.667 80.500 C 154.667 80.775,154.592 81.000,154.500 81.000 C 154.396 81.000,154.333 81.972,154.333 83.583 C 154.333 85.194,154.396 86.167,154.500 86.167 C 154.592 86.167,154.667 86.392,154.667 86.667 C 154.667 86.942,154.742 87.167,154.833 87.167 C 154.925 87.167,155.000 87.317,155.000 87.500 C 155.000 87.683,155.075 87.833,155.167 87.833 C 155.258 87.833,155.333 87.910,155.333 88.003 C 155.333 88.273,157.467 90.333,157.747 90.333 C 157.886 90.333,158.000 90.408,158.000 90.500 C 158.000 90.592,158.150 90.667,158.333 90.667 C 158.517 90.667,158.667 90.742,158.667 90.833 C 158.667 90.925,158.817 91.000,159.000 91.000 C 159.183 91.000,159.333 91.075,159.333 91.167 C 159.333 91.258,159.483 91.333,159.667 91.333 C 159.850 91.333,160.000 91.408,160.000 91.500 C 160.000 91.592,160.258 91.667,160.573 91.667 C 160.889 91.667,161.193 91.742,161.250 91.833 C 161.313 91.936,162.696 92.000,164.843 92.000 C 167.059 92.000,168.333 91.939,168.333 91.833 C 168.333 91.742,168.633 91.667,169.000 91.667 C 169.367 91.667,169.667 91.592,169.667 91.500 C 169.667 91.408,169.892 91.333,170.167 91.333 C 170.442 91.333,170.667 91.258,170.667 91.167 C 170.667 91.075,170.817 91.000,171.000 91.000 C 171.183 91.000,171.333 90.925,171.333 90.833 C 171.333 90.742,171.467 90.667,171.630 90.667 C 171.793 90.667,172.035 90.517,172.167 90.333 C 172.299 90.150,172.524 90.000,172.667 90.000 C 172.810 90.000,173.035 89.850,173.167 89.667 C 173.566 89.112,173.667 89.279,173.667 90.500 L 173.667 91.667 176.417 91.667 L 179.167 91.667 179.167 81.750 C 179.167 75.250,179.109 71.833,179.000 71.833 C 178.908 71.833,178.833 71.458,178.833 71.000 C 178.833 70.542,178.758 70.167,178.667 70.167 C 178.575 70.167,178.500 69.942,178.500 69.667 C 178.500 69.392,178.425 69.167,178.333 69.167 C 178.242 69.167,178.167 69.017,178.167 68.833 C 178.167 68.650,178.092 68.500,178.000 68.500 C 177.908 68.500,177.833 68.350,177.833 68.167 C 177.833 67.983,177.758 67.833,177.667 67.833 C 177.575 67.833,177.500 67.699,177.500 67.534 C 177.500 66.836,175.542 64.861,174.458 64.467 C 174.206 64.376,174.000 64.233,174.000 64.150 C 174.000 64.068,173.775 64.000,173.500 64.000 C 173.225 64.000,173.000 63.925,173.000 63.833 C 173.000 63.742,172.775 63.667,172.500 63.667 C 172.225 63.667,172.000 63.592,172.000 63.500 C 172.000 63.408,171.700 63.333,171.333 63.333 C 170.967 63.333,170.667 63.258,170.667 63.167 C 170.667 63.067,170.028 63.000,169.083 63.000 C 168.139 63.000,167.500 62.933,167.500 62.833 C 167.500 62.742,167.200 62.667,166.833 62.667 C 166.467 62.667,166.167 62.742,166.167 62.833 M307.833 62.833 C 307.833 62.931,307.250 63.000,306.417 63.000 C 305.583 63.000,305.000 63.069,305.000 63.167 C 305.000 63.258,304.700 63.333,304.333 63.333 C 303.967 63.333,303.667 63.408,303.667 63.500 C 303.667 63.592,303.442 63.667,303.167 63.667 C 302.892 63.667,302.667 63.742,302.667 63.833 C 302.667 63.925,302.517 64.000,302.333 64.000 C 302.150 64.000,302.000 64.067,302.000 64.148 C 302.000 64.230,301.756 64.342,301.458 64.398 C 301.160 64.454,300.699 64.688,300.432 64.917 C 300.166 65.146,299.885 65.333,299.809 65.333 C 299.732 65.333,299.444 65.569,299.168 65.858 L 298.667 66.383 298.667 64.858 L 298.667 63.333 295.917 63.333 L 293.167 63.333 293.167 77.500 L 293.167 91.667 295.917 91.667 L 298.667 91.667 298.667 84.333 C 298.667 79.556,298.725 77.000,298.833 77.000 C 298.931 77.000,299.000 76.444,299.000 75.667 C 299.000 74.889,299.069 74.333,299.167 74.333 C 299.258 74.333,299.333 74.108,299.333 73.833 C 299.333 73.558,299.408 73.333,299.500 73.333 C 299.592 73.333,299.667 73.108,299.667 72.833 C 299.667 72.558,299.742 72.333,299.833 72.333 C 299.925 72.333,300.000 72.221,300.000 72.083 C 300.000 71.946,300.075 71.833,300.167 71.833 C 300.258 71.833,300.333 71.721,300.333 71.583 C 300.333 71.446,300.408 71.333,300.500 71.333 C 300.592 71.333,300.667 71.256,300.667 71.162 C 300.667 70.900,302.126 69.500,302.398 69.500 C 302.531 69.500,302.664 69.444,302.694 69.375 C 302.787 69.167,304.176 68.500,304.516 68.500 C 304.690 68.500,304.833 68.425,304.833 68.333 C 304.833 68.241,305.278 68.167,305.833 68.167 C 306.389 68.167,306.833 68.093,306.833 68.000 C 306.833 67.908,307.054 67.833,307.323 67.833 C 307.593 67.833,307.860 67.908,307.917 68.000 C 307.973 68.092,308.428 68.167,308.927 68.167 C 309.425 68.167,309.833 68.242,309.833 68.333 C 309.833 68.425,310.058 68.500,310.333 68.500 C 310.608 68.500,310.833 68.575,310.833 68.667 C 310.833 68.758,310.967 68.833,311.130 68.833 C 311.293 68.833,311.535 68.983,311.667 69.167 C 311.799 69.350,312.006 69.500,312.128 69.500 C 312.408 69.500,313.013 70.113,313.320 70.708 C 313.450 70.960,313.619 71.167,313.695 71.167 C 313.771 71.167,313.833 71.317,313.833 71.500 C 313.833 71.683,313.908 71.833,314.000 71.833 C 314.092 71.833,314.167 72.021,314.167 72.250 C 314.167 72.479,314.242 72.667,314.333 72.667 C 314.425 72.667,314.500 72.967,314.500 73.333 C 314.500 73.700,314.575 74.000,314.667 74.000 C 314.776 74.000,314.833 77.056,314.833 82.833 L 314.833 91.667 317.583 91.667 L 320.333 91.667 320.333 81.583 C 320.333 74.972,320.276 71.500,320.167 71.500 C 320.075 71.500,320.000 71.200,320.000 70.833 C 320.000 70.467,319.925 70.167,319.833 70.167 C 319.742 70.167,319.667 69.984,319.667 69.760 C 319.667 69.536,319.592 69.307,319.500 69.250 C 319.408 69.193,319.333 69.001,319.333 68.823 C 319.333 68.646,319.258 68.500,319.167 68.500 C 319.075 68.500,319.000 68.367,319.000 68.203 C 319.000 68.040,318.850 67.799,318.667 67.667 C 318.483 67.535,318.333 67.329,318.333 67.210 C 318.333 66.637,315.604 64.333,314.925 64.333 C 314.783 64.333,314.667 64.258,314.667 64.167 C 314.667 64.075,314.517 64.000,314.333 64.000 C 314.150 64.000,313.999 63.944,313.999 63.875 C 313.997 63.673,313.140 63.333,312.633 63.333 C 312.377 63.333,312.167 63.258,312.167 63.167 C 312.167 63.068,311.556 63.000,310.667 63.000 C 309.778 63.000,309.167 62.932,309.167 62.833 C 309.167 62.742,308.867 62.667,308.500 62.667 C 308.133 62.667,307.833 62.742,307.833 62.833 M269.333 63.167 C 269.333 63.258,269.033 63.333,268.667 63.333 C 268.300 63.333,268.000 63.408,268.000 63.500 C 268.000 63.592,267.775 63.667,267.500 63.667 C 267.225 63.667,267.000 63.742,267.000 63.833 C 267.000 63.925,266.850 64.000,266.667 64.000 C 266.483 64.000,266.333 64.068,266.333 64.152 C 266.333 64.236,266.033 64.355,265.667 64.417 C 265.300 64.479,265.000 64.589,265.000 64.661 C 265.000 64.734,264.775 64.886,264.500 65.000 C 264.225 65.114,264.000 65.273,264.000 65.354 C 264.000 65.434,263.899 65.500,263.776 65.500 C 263.506 65.500,261.333 67.599,261.333 67.860 C 261.333 67.961,261.194 68.166,261.025 68.314 C 260.657 68.635,260.167 69.546,260.167 69.908 C 260.167 70.050,260.092 70.167,260.000 70.167 C 259.908 70.167,259.833 70.317,259.833 70.500 C 259.833 70.683,259.758 70.833,259.667 70.833 C 259.575 70.833,259.500 70.983,259.500 71.167 C 259.500 71.350,259.425 71.500,259.333 71.500 C 259.242 71.500,259.167 71.725,259.167 72.000 C 259.167 72.275,259.092 72.500,259.000 72.500 C 258.908 72.500,258.833 72.800,258.833 73.167 C 258.833 73.533,258.758 73.833,258.667 73.833 C 258.561 73.833,258.500 75.167,258.500 77.500 C 258.500 79.833,258.561 81.167,258.667 81.167 C 258.758 81.167,258.833 81.392,258.833 81.667 C 258.833 81.942,258.908 82.167,259.000 82.167 C 259.092 82.167,259.167 82.392,259.167 82.667 C 259.167 82.942,259.242 83.167,259.333 83.167 C 259.425 83.167,259.500 83.392,259.500 83.667 C 259.500 83.942,259.575 84.167,259.667 84.167 C 259.758 84.167,259.833 84.317,259.833 84.500 C 259.833 84.683,259.908 84.833,260.000 84.833 C 260.092 84.833,260.167 84.978,260.167 85.155 C 260.167 85.332,260.279 85.589,260.417 85.726 C 260.554 85.864,260.667 86.043,260.667 86.125 C 260.667 86.208,261.188 86.794,261.825 87.429 C 263.416 89.015,263.786 89.333,264.041 89.333 C 264.161 89.333,264.368 89.483,264.500 89.667 C 264.632 89.850,264.874 90.000,265.037 90.000 C 265.200 90.000,265.333 90.075,265.333 90.167 C 265.333 90.258,265.483 90.333,265.667 90.333 C 265.850 90.333,266.000 90.408,266.000 90.500 C 266.000 90.592,266.150 90.667,266.333 90.667 C 266.517 90.667,266.667 90.742,266.667 90.833 C 266.667 90.925,266.817 91.000,267.000 91.000 C 267.183 91.000,267.333 91.075,267.333 91.167 C 267.333 91.258,267.633 91.333,268.000 91.333 C 268.367 91.333,268.667 91.408,268.667 91.500 C 268.667 91.592,268.929 91.667,269.250 91.667 C 269.571 91.667,269.833 91.742,269.833 91.833 C 269.833 91.940,271.194 92.000,273.583 92.000 C 275.972 92.000,277.333 91.940,277.333 91.833 C 277.333 91.742,277.633 91.667,278.000 91.667 C 278.367 91.667,278.667 91.592,278.667 91.500 C 278.667 91.408,278.892 91.333,279.167 91.333 C 279.442 91.333,279.667 91.258,279.667 91.167 C 279.667 91.075,279.892 91.000,280.167 91.000 C 280.442 91.000,280.667 90.925,280.667 90.833 C 280.667 90.742,280.817 90.667,281.000 90.667 C 281.183 90.667,281.333 90.592,281.333 90.500 C 281.333 90.408,281.467 90.333,281.630 90.333 C 281.793 90.333,282.035 90.183,282.167 90.000 C 282.299 89.817,282.505 89.667,282.626 89.667 C 282.825 89.667,283.187 89.363,284.542 88.059 C 285.132 87.491,285.121 87.080,284.500 86.500 C 284.225 86.243,284.000 85.961,284.000 85.872 C 284.000 85.784,283.594 85.289,283.098 84.772 C 282.071 83.704,281.679 83.613,281.025 84.292 C 280.782 84.544,280.377 84.856,280.125 84.987 C 279.873 85.117,279.667 85.285,279.667 85.361 C 279.667 85.438,279.554 85.500,279.417 85.500 C 279.279 85.500,279.167 85.575,279.167 85.667 C 279.167 85.758,279.054 85.833,278.917 85.833 C 278.779 85.833,278.667 85.908,278.667 86.000 C 278.667 86.092,278.479 86.167,278.250 86.167 C 278.021 86.167,277.833 86.242,277.833 86.333 C 277.833 86.425,277.683 86.500,277.500 86.500 C 277.317 86.500,277.167 86.575,277.167 86.667 C 277.167 86.758,276.792 86.833,276.333 86.833 C 275.875 86.833,275.500 86.908,275.500 87.000 C 275.500 87.100,274.833 87.167,273.833 87.167 C 272.833 87.167,272.167 87.100,272.167 87.000 C 272.167 86.908,271.792 86.833,271.333 86.833 C 270.875 86.833,270.500 86.758,270.500 86.667 C 270.500 86.575,270.275 86.500,270.000 86.500 C 269.725 86.500,269.500 86.425,269.500 86.333 C 269.500 86.242,269.350 86.167,269.167 86.167 C 268.983 86.167,268.833 86.092,268.833 86.000 C 268.833 85.908,268.701 85.833,268.540 85.833 C 268.379 85.833,268.153 85.683,268.039 85.500 C 267.924 85.317,267.755 85.167,267.662 85.167 C 267.393 85.167,265.667 83.367,265.667 83.087 C 265.667 82.947,265.592 82.833,265.500 82.833 C 265.408 82.833,265.333 82.721,265.333 82.583 C 265.333 82.446,265.258 82.333,265.167 82.333 C 265.075 82.333,265.000 82.221,265.000 82.083 C 265.000 81.946,264.925 81.833,264.833 81.833 C 264.742 81.833,264.667 81.646,264.667 81.417 C 264.667 81.188,264.592 81.000,264.500 81.000 C 264.408 81.000,264.333 80.775,264.333 80.500 C 264.333 80.225,264.258 80.000,264.167 80.000 C 264.075 80.000,264.000 79.925,264.000 79.833 C 264.000 79.724,267.868 79.667,275.271 79.667 L 286.541 79.667 286.470 76.136 C 286.419 73.598,286.343 72.586,286.199 72.539 C 286.090 72.502,286.000 72.295,286.000 72.079 C 286.000 71.863,285.925 71.640,285.833 71.583 C 285.742 71.527,285.667 71.335,285.667 71.157 C 285.667 70.979,285.601 70.833,285.521 70.833 C 285.441 70.833,285.332 70.617,285.279 70.353 C 285.226 70.089,285.067 69.757,284.925 69.615 C 284.783 69.473,284.667 69.239,284.667 69.095 C 284.667 68.951,284.592 68.833,284.500 68.833 C 284.408 68.833,284.333 68.724,284.333 68.590 C 284.333 68.319,281.251 65.167,280.987 65.167 C 280.895 65.167,280.659 65.018,280.464 64.835 C 280.268 64.653,279.859 64.457,279.554 64.400 C 279.249 64.343,279.000 64.230,279.000 64.148 C 279.000 64.067,278.850 64.000,278.667 64.000 C 278.483 64.000,278.333 63.925,278.333 63.833 C 278.333 63.742,278.108 63.667,277.833 63.667 C 277.558 63.667,277.333 63.592,277.333 63.500 C 277.333 63.408,277.071 63.333,276.750 63.333 C 276.429 63.333,276.167 63.258,276.167 63.167 C 276.167 63.061,274.917 63.000,272.750 63.000 C 270.583 63.000,269.333 63.061,269.333 63.167 M338.000 63.167 C 338.000 63.258,337.700 63.333,337.333 63.333 C 336.967 63.333,336.667 63.408,336.667 63.500 C 336.667 63.592,336.442 63.667,336.167 63.667 C 335.892 63.667,335.667 63.742,335.667 63.833 C 335.667 63.925,335.442 64.000,335.167 64.000 C 334.892 64.000,334.667 64.067,334.667 64.149 C 334.667 64.230,334.468 64.347,334.224 64.408 C 333.680 64.545,332.403 65.403,331.808 66.033 C 331.565 66.290,331.278 66.500,331.171 66.500 C 330.921 66.500,330.500 66.919,330.500 67.168 C 330.500 67.273,330.200 67.648,329.833 68.000 C 329.467 68.352,329.167 68.759,329.167 68.904 C 329.167 69.048,329.092 69.167,329.000 69.167 C 328.908 69.167,328.833 69.317,328.833 69.500 C 328.833 69.683,328.758 69.833,328.667 69.833 C 328.575 69.833,328.500 69.983,328.500 70.167 C 328.500 70.350,328.425 70.500,328.333 70.500 C 328.242 70.500,328.167 70.650,328.167 70.833 C 328.167 71.017,328.092 71.167,328.000 71.167 C 327.908 71.167,327.833 71.392,327.833 71.667 C 327.833 71.942,327.758 72.167,327.667 72.167 C 327.575 72.167,327.500 72.425,327.500 72.740 C 327.500 73.056,327.425 73.360,327.333 73.417 C 327.231 73.480,327.167 74.807,327.167 76.843 C 327.167 78.948,327.228 80.167,327.333 80.167 C 327.425 80.167,327.500 80.467,327.500 80.833 C 327.500 81.200,327.575 81.500,327.667 81.500 C 327.758 81.500,327.833 81.650,327.833 81.833 C 327.833 82.017,327.908 82.167,328.000 82.167 C 328.092 82.167,328.167 82.392,328.167 82.667 C 328.167 82.942,328.242 83.167,328.333 83.167 C 328.425 83.167,328.500 83.300,328.500 83.463 C 328.500 83.626,328.650 83.868,328.833 84.000 C 329.017 84.132,329.167 84.357,329.167 84.500 C 329.167 84.643,329.317 84.868,329.500 85.000 C 329.683 85.132,329.833 85.342,329.833 85.466 C 329.833 85.724,331.950 87.833,332.208 87.833 C 332.301 87.833,332.499 87.966,332.647 88.128 C 332.795 88.290,333.235 88.571,333.623 88.753 C 334.012 88.935,334.330 89.140,334.331 89.208 C 334.332 89.277,334.558 89.333,334.833 89.333 C 335.108 89.333,335.333 89.408,335.333 89.500 C 335.333 89.592,335.483 89.667,335.667 89.667 C 335.850 89.667,336.000 89.742,336.000 89.833 C 336.000 89.925,336.300 90.000,336.667 90.000 C 337.033 90.000,337.333 90.075,337.333 90.167 C 337.333 90.258,337.708 90.333,338.167 90.333 C 338.625 90.333,339.000 90.408,339.000 90.500 C 339.000 90.604,339.972 90.667,341.583 90.667 C 343.194 90.667,344.167 90.604,344.167 90.500 C 344.167 90.408,344.542 90.333,345.000 90.333 C 345.458 90.333,345.833 90.258,345.833 90.167 C 345.833 90.075,346.058 90.000,346.333 90.000 C 346.608 90.000,346.833 89.925,346.833 89.833 C 346.833 89.742,347.058 89.667,347.333 89.667 C 347.608 89.667,347.833 89.592,347.833 89.500 C 347.833 89.408,347.983 89.333,348.167 89.333 C 348.350 89.333,348.501 89.277,348.502 89.208 C 348.503 89.140,348.810 88.937,349.184 88.758 C 349.558 88.578,350.157 88.147,350.515 87.799 C 350.874 87.451,351.215 87.167,351.274 87.167 C 351.443 87.167,351.162 91.244,350.989 91.306 C 350.903 91.336,350.833 91.580,350.833 91.847 C 350.833 92.115,350.758 92.333,350.667 92.333 C 350.575 92.333,350.500 92.542,350.500 92.797 C 350.500 93.069,350.362 93.359,350.167 93.500 C 349.983 93.632,349.833 93.838,349.833 93.958 C 349.833 94.241,348.408 95.667,348.125 95.667 C 348.005 95.667,347.799 95.817,347.667 96.000 C 347.535 96.183,347.293 96.333,347.130 96.333 C 346.967 96.333,346.833 96.408,346.833 96.500 C 346.833 96.592,346.608 96.667,346.333 96.667 C 346.058 96.667,345.833 96.742,345.833 96.833 C 345.833 96.925,345.458 97.000,345.000 97.000 C 344.542 97.000,344.167 97.075,344.167 97.167 C 344.167 97.269,343.361 97.333,342.083 97.333 C 340.806 97.333,340.000 97.269,340.000 97.167 C 340.000 97.075,339.625 97.000,339.167 97.000 C 338.708 97.000,338.333 96.925,338.333 96.833 C 338.333 96.742,338.033 96.667,337.667 96.667 C 337.300 96.667,337.000 96.592,337.000 96.500 C 337.000 96.408,336.775 96.333,336.500 96.333 C 336.225 96.333,336.000 96.258,336.000 96.167 C 336.000 96.075,335.775 96.000,335.500 96.000 C 335.225 96.000,335.000 95.925,335.000 95.833 C 335.000 95.742,334.850 95.667,334.667 95.667 C 334.483 95.667,334.333 95.592,334.333 95.500 C 334.333 95.408,334.183 95.333,334.000 95.333 C 333.817 95.333,333.667 95.258,333.667 95.167 C 333.667 95.075,333.533 95.000,333.370 95.000 C 333.207 95.000,332.965 94.850,332.833 94.667 C 332.701 94.483,332.465 94.333,332.308 94.333 C 332.151 94.333,331.975 94.183,331.917 94.000 C 331.775 93.553,330.833 93.521,330.833 93.963 C 330.833 94.126,330.683 94.368,330.500 94.500 C 330.317 94.632,330.167 94.857,330.167 95.000 C 330.167 95.143,330.017 95.368,329.833 95.500 C 329.650 95.632,329.500 95.857,329.500 96.000 C 329.500 96.143,329.350 96.368,329.167 96.500 C 328.983 96.632,328.833 96.874,328.833 97.037 C 328.833 97.200,328.758 97.333,328.667 97.333 C 328.575 97.333,328.500 97.487,328.500 97.674 C 328.500 98.055,329.198 98.833,329.539 98.833 C 329.660 98.833,329.868 98.983,330.000 99.167 C 330.132 99.350,330.374 99.500,330.537 99.500 C 330.700 99.500,330.833 99.575,330.833 99.667 C 330.833 99.758,330.983 99.833,331.167 99.833 C 331.350 99.833,331.500 99.908,331.500 100.000 C 331.500 100.092,331.650 100.167,331.833 100.167 C 332.017 100.167,332.167 100.242,332.167 100.333 C 332.167 100.425,332.317 100.500,332.500 100.500 C 332.683 100.500,332.833 100.575,332.833 100.667 C 332.833 100.758,333.016 100.833,333.240 100.833 C 333.464 100.833,333.693 100.908,333.750 101.000 C 333.807 101.092,334.036 101.167,334.260 101.167 C 334.484 101.167,334.667 101.242,334.667 101.333 C 334.667 101.425,334.967 101.500,335.333 101.500 C 335.700 101.500,336.000 101.575,336.000 101.667 C 336.000 101.758,336.375 101.833,336.833 101.833 C 337.292 101.833,337.667 101.908,337.667 102.000 C 337.667 102.107,339.250 102.167,342.083 102.167 C 344.917 102.167,346.500 102.107,346.500 102.000 C 346.500 101.908,346.875 101.833,347.333 101.833 C 347.792 101.833,348.167 101.758,348.167 101.667 C 348.167 101.575,348.350 101.500,348.573 101.500 C 348.797 101.500,349.027 101.425,349.083 101.333 C 349.140 101.242,349.369 101.167,349.593 101.167 C 349.817 101.167,350.000 101.092,350.000 101.000 C 350.000 100.908,350.150 100.833,350.333 100.833 C 350.517 100.833,350.667 100.758,350.667 100.667 C 350.667 100.575,350.800 100.500,350.963 100.500 C 351.126 100.500,351.368 100.350,351.500 100.167 C 351.632 99.983,351.837 99.833,351.956 99.833 C 352.209 99.833,354.667 97.418,354.667 97.169 C 354.667 97.076,354.742 97.000,354.833 97.000 C 354.925 97.000,355.000 96.888,355.000 96.750 C 355.000 96.612,355.075 96.500,355.167 96.500 C 355.258 96.500,355.333 96.388,355.333 96.250 C 355.333 96.112,355.408 96.000,355.500 96.000 C 355.592 96.000,355.667 95.854,355.667 95.677 C 355.667 95.499,355.742 95.307,355.833 95.250 C 355.925 95.193,356.000 94.964,356.000 94.740 C 356.000 94.516,356.075 94.333,356.167 94.333 C 356.258 94.333,356.333 94.113,356.333 93.843 C 356.333 93.574,356.408 93.307,356.500 93.250 C 356.592 93.193,356.667 92.739,356.667 92.240 C 356.667 91.741,356.742 91.333,356.833 91.333 C 356.943 91.333,357.000 86.556,357.000 77.333 L 357.000 63.333 354.333 63.333 L 351.667 63.333 351.667 64.917 C 351.667 66.683,351.655 66.701,351.000 66.000 C 350.743 65.725,350.458 65.500,350.367 65.500 C 350.276 65.500,349.956 65.271,349.656 64.990 C 349.356 64.710,348.898 64.438,348.639 64.386 C 348.379 64.334,348.167 64.226,348.167 64.146 C 348.167 64.066,347.942 64.000,347.667 64.000 C 347.392 64.000,347.167 63.925,347.167 63.833 C 347.167 63.742,347.017 63.667,346.833 63.667 C 346.650 63.667,346.500 63.592,346.500 63.500 C 346.500 63.408,346.200 63.333,345.833 63.333 C 345.467 63.333,345.167 63.258,345.167 63.167 C 345.167 63.061,343.861 63.000,341.583 63.000 C 339.306 63.000,338.000 63.061,338.000 63.167 M374.333 63.167 C 374.333 63.258,374.033 63.333,373.667 63.333 C 373.300 63.333,373.000 63.408,373.000 63.500 C 373.000 63.592,372.775 63.667,372.500 63.667 C 372.225 63.667,372.000 63.742,372.000 63.833 C 372.000 63.925,371.850 64.000,371.667 64.000 C 371.483 64.000,371.333 64.075,371.333 64.167 C 371.333 64.258,371.213 64.333,371.067 64.333 C 370.696 64.333,369.781 64.786,369.363 65.175 C 369.171 65.354,368.934 65.500,368.837 65.500 C 368.601 65.500,366.500 67.610,366.500 67.847 C 366.500 67.949,366.275 68.243,366.000 68.500 C 365.725 68.757,365.500 69.087,365.500 69.234 C 365.500 69.380,365.425 69.500,365.333 69.500 C 365.242 69.500,365.167 69.650,365.167 69.833 C 365.167 70.017,365.092 70.167,365.000 70.167 C 364.908 70.167,364.833 70.317,364.833 70.500 C 364.833 70.683,364.758 70.833,364.667 70.833 C 364.575 70.833,364.500 70.983,364.500 71.167 C 364.500 71.350,364.425 71.500,364.333 71.500 C 364.242 71.500,364.167 71.725,364.167 72.000 C 364.167 72.275,364.092 72.500,364.000 72.500 C 363.908 72.500,363.833 72.800,363.833 73.167 C 363.833 73.533,363.758 73.833,363.667 73.833 C 363.561 73.833,363.500 75.167,363.500 77.500 C 363.500 79.833,363.561 81.167,363.667 81.167 C 363.758 81.167,363.833 81.392,363.833 81.667 C 363.833 81.942,363.908 82.167,364.000 82.167 C 364.092 82.167,364.167 82.392,364.167 82.667 C 364.167 82.942,364.242 83.167,364.333 83.167 C 364.425 83.167,364.500 83.392,364.500 83.667 C 364.500 83.942,364.575 84.167,364.667 84.167 C 364.758 84.167,364.833 84.317,364.833 84.500 C 364.833 84.683,364.908 84.833,365.000 84.833 C 365.092 84.833,365.167 84.967,365.167 85.130 C 365.167 85.293,365.317 85.535,365.500 85.667 C 365.683 85.799,365.833 86.006,365.833 86.128 C 365.833 86.250,366.377 86.871,367.042 87.509 C 368.691 89.092,368.967 89.333,369.124 89.333 C 369.199 89.333,369.368 89.483,369.500 89.667 C 369.632 89.850,369.874 90.000,370.037 90.000 C 370.200 90.000,370.333 90.075,370.333 90.167 C 370.333 90.258,370.483 90.333,370.667 90.333 C 370.850 90.333,371.000 90.408,371.000 90.500 C 371.000 90.592,371.150 90.667,371.333 90.667 C 371.517 90.667,371.667 90.742,371.667 90.833 C 371.667 90.925,371.817 91.000,372.000 91.000 C 372.183 91.000,372.333 91.075,372.333 91.167 C 372.333 91.258,372.633 91.333,373.000 91.333 C 373.367 91.333,373.667 91.408,373.667 91.500 C 373.667 91.592,373.967 91.667,374.333 91.667 C 374.700 91.667,375.000 91.742,375.000 91.833 C 375.000 91.940,376.361 92.000,378.750 92.000 C 381.139 92.000,382.500 91.940,382.500 91.833 C 382.500 91.742,382.800 91.667,383.167 91.667 C 383.533 91.667,383.833 91.592,383.833 91.500 C 383.833 91.408,384.058 91.333,384.333 91.333 C 384.608 91.333,384.833 91.258,384.833 91.167 C 384.833 91.075,385.021 91.000,385.250 91.000 C 385.479 91.000,385.667 90.925,385.667 90.833 C 385.667 90.742,385.817 90.667,386.000 90.667 C 386.183 90.667,386.333 90.592,386.333 90.500 C 386.333 90.408,386.467 90.333,386.630 90.333 C 386.793 90.333,387.035 90.183,387.167 90.000 C 387.299 89.817,387.505 89.667,387.626 89.667 C 387.746 89.667,388.099 89.423,388.411 89.125 C 388.722 88.827,389.205 88.396,389.483 88.167 C 390.136 87.630,390.141 87.099,389.500 86.500 C 389.225 86.243,389.000 85.949,389.000 85.846 C 389.000 85.555,387.207 83.833,386.904 83.833 C 386.755 83.833,386.424 84.058,386.167 84.333 C 385.910 84.608,385.596 84.833,385.470 84.833 C 385.344 84.833,385.132 84.983,385.000 85.167 C 384.868 85.350,384.643 85.500,384.500 85.500 C 384.357 85.500,384.132 85.650,384.000 85.833 C 383.859 86.029,383.569 86.167,383.297 86.167 C 383.042 86.167,382.833 86.242,382.833 86.333 C 382.833 86.425,382.683 86.500,382.500 86.500 C 382.317 86.500,382.167 86.575,382.167 86.667 C 382.167 86.758,381.792 86.833,381.333 86.833 C 380.875 86.833,380.500 86.908,380.500 87.000 C 380.500 87.100,379.833 87.167,378.833 87.167 C 377.833 87.167,377.167 87.100,377.167 87.000 C 377.167 86.908,376.829 86.833,376.417 86.833 C 376.004 86.833,375.667 86.758,375.667 86.667 C 375.667 86.575,375.442 86.500,375.167 86.500 C 374.892 86.500,374.667 86.425,374.667 86.333 C 374.667 86.242,374.517 86.167,374.333 86.167 C 374.150 86.167,374.000 86.092,374.000 86.000 C 374.000 85.908,373.867 85.833,373.703 85.833 C 373.540 85.833,373.299 85.683,373.167 85.500 C 373.035 85.317,372.829 85.167,372.710 85.167 C 372.406 85.167,370.667 83.396,370.667 83.087 C 370.667 82.947,370.592 82.833,370.500 82.833 C 370.408 82.833,370.333 82.721,370.333 82.583 C 370.333 82.446,370.258 82.333,370.167 82.333 C 370.075 82.333,370.000 82.221,370.000 82.083 C 370.000 81.946,369.925 81.833,369.833 81.833 C 369.742 81.833,369.667 81.646,369.667 81.417 C 369.667 81.188,369.592 81.000,369.500 81.000 C 369.408 81.000,369.333 80.775,369.333 80.500 C 369.333 80.225,369.258 80.000,369.167 80.000 C 369.075 80.000,369.000 79.926,369.000 79.834 C 369.000 79.727,372.957 79.654,380.292 79.626 L 391.583 79.583 391.629 76.708 C 391.659 74.829,391.615 73.833,391.504 73.833 C 391.410 73.833,391.333 73.533,391.333 73.167 C 391.333 72.800,391.258 72.500,391.167 72.500 C 391.075 72.500,391.000 72.275,391.000 72.000 C 391.000 71.725,390.925 71.500,390.833 71.500 C 390.742 71.500,390.667 71.350,390.667 71.167 C 390.667 70.983,390.592 70.833,390.500 70.833 C 390.408 70.833,390.333 70.625,390.333 70.370 C 390.333 70.098,390.196 69.808,390.000 69.667 C 389.817 69.535,389.667 69.293,389.667 69.130 C 389.667 68.967,389.592 68.833,389.500 68.833 C 389.408 68.833,389.333 68.720,389.333 68.581 C 389.333 68.320,386.281 65.167,386.028 65.167 C 385.949 65.167,385.751 65.018,385.586 64.837 C 385.422 64.655,385.035 64.459,384.727 64.401 C 384.419 64.344,384.167 64.230,384.167 64.148 C 384.167 64.067,384.017 64.000,383.833 64.000 C 383.650 64.000,383.500 63.925,383.500 63.833 C 383.500 63.742,383.275 63.667,383.000 63.667 C 382.725 63.667,382.500 63.592,382.500 63.500 C 382.500 63.408,382.200 63.333,381.833 63.333 C 381.467 63.333,381.167 63.258,381.167 63.167 C 381.167 63.061,379.917 63.000,377.750 63.000 C 375.583 63.000,374.333 63.061,374.333 63.167 M210.000 73.417 C 210.000 80.028,210.057 83.500,210.167 83.500 C 210.258 83.500,210.333 83.800,210.333 84.167 C 210.333 84.533,210.408 84.833,210.500 84.833 C 210.592 84.833,210.667 84.983,210.667 85.167 C 210.667 85.350,210.742 85.500,210.833 85.500 C 210.925 85.500,211.000 85.725,211.000 86.000 C 211.000 86.275,211.075 86.500,211.167 86.500 C 211.258 86.500,211.333 86.598,211.333 86.719 C 211.333 86.839,211.483 87.098,211.667 87.295 C 211.850 87.492,212.000 87.731,212.000 87.826 C 212.000 87.922,212.075 88.000,212.167 88.000 C 212.258 88.000,212.333 88.112,212.333 88.250 C 212.333 88.388,212.406 88.500,212.496 88.500 C 212.585 88.500,212.995 88.837,213.408 89.250 C 213.820 89.662,214.264 90.000,214.394 90.000 C 214.525 90.000,214.670 90.103,214.719 90.228 C 214.824 90.502,216.440 91.333,216.866 91.333 C 217.031 91.333,217.167 91.408,217.167 91.500 C 217.167 91.592,217.467 91.667,217.833 91.667 C 218.200 91.667,218.500 91.742,218.500 91.833 C 218.500 91.932,219.111 92.000,220.000 92.000 C 220.889 92.000,221.500 92.068,221.500 92.167 C 221.500 92.258,221.762 92.333,222.083 92.333 C 222.404 92.333,222.667 92.258,222.667 92.167 C 222.667 92.069,223.222 92.000,224.000 92.000 C 224.778 92.000,225.333 91.931,225.333 91.833 C 225.333 91.742,225.633 91.667,226.000 91.667 C 226.367 91.667,226.667 91.592,226.667 91.500 C 226.667 91.408,226.892 91.333,227.167 91.333 C 227.442 91.333,227.667 91.258,227.667 91.167 C 227.667 91.075,227.817 91.000,228.000 91.000 C 228.183 91.000,228.333 90.925,228.333 90.833 C 228.333 90.742,228.467 90.667,228.630 90.667 C 228.793 90.667,229.035 90.517,229.167 90.333 C 229.299 90.150,229.494 90.000,229.600 90.000 C 229.706 90.000,230.102 89.700,230.480 89.333 C 231.372 88.468,231.333 88.431,231.333 90.167 L 231.333 91.667 234.083 91.667 L 236.833 91.667 236.833 77.500 L 236.833 63.333 234.083 63.333 L 231.333 63.333 231.333 70.667 C 231.333 75.444,231.275 78.000,231.167 78.000 C 231.069 78.000,231.000 78.556,231.000 79.333 C 231.000 80.111,230.931 80.667,230.833 80.667 C 230.742 80.667,230.667 80.929,230.667 81.250 C 230.667 81.571,230.592 81.833,230.500 81.833 C 230.408 81.833,230.333 81.983,230.333 82.167 C 230.333 82.350,230.258 82.500,230.167 82.500 C 230.075 82.500,230.000 82.650,230.000 82.833 C 230.000 83.017,229.925 83.167,229.833 83.167 C 229.742 83.167,229.667 83.281,229.667 83.420 C 229.667 83.729,227.927 85.500,227.624 85.500 C 227.504 85.500,227.299 85.650,227.167 85.833 C 227.035 86.017,226.793 86.167,226.630 86.167 C 226.467 86.167,226.333 86.242,226.333 86.333 C 226.333 86.425,226.108 86.500,225.833 86.500 C 225.558 86.500,225.333 86.575,225.333 86.667 C 225.333 86.758,224.921 86.833,224.417 86.833 C 223.912 86.833,223.500 86.908,223.500 87.000 C 223.500 87.092,223.200 87.167,222.833 87.167 C 222.467 87.167,222.167 87.092,222.167 87.000 C 222.167 86.908,221.796 86.833,221.343 86.833 C 220.890 86.833,220.473 86.758,220.417 86.667 C 220.360 86.575,220.131 86.500,219.907 86.500 C 219.683 86.500,219.500 86.425,219.500 86.333 C 219.500 86.242,219.367 86.167,219.203 86.167 C 219.040 86.167,218.799 86.017,218.667 85.833 C 218.535 85.650,218.327 85.500,218.206 85.500 C 217.925 85.500,217.321 84.887,217.014 84.292 C 216.883 84.040,216.715 83.833,216.639 83.833 C 216.562 83.833,216.500 83.683,216.500 83.500 C 216.500 83.317,216.425 83.167,216.333 83.167 C 216.242 83.167,216.167 82.979,216.167 82.750 C 216.167 82.521,216.092 82.333,216.000 82.333 C 215.908 82.333,215.833 82.033,215.833 81.667 C 215.833 81.300,215.758 81.000,215.667 81.000 C 215.558 81.000,215.500 77.944,215.500 72.167 L 215.500 63.333 212.750 63.333 L 210.000 63.333 210.000 73.417 M246.000 78.833 C 246.000 89.056,245.943 94.333,245.833 94.333 C 245.742 94.333,245.667 94.558,245.667 94.833 C 245.667 95.108,245.592 95.333,245.500 95.333 C 245.408 95.333,245.333 95.448,245.333 95.589 C 245.333 95.921,244.254 97.000,243.922 97.000 C 243.782 97.000,243.667 97.075,243.667 97.167 C 243.667 97.267,242.972 97.333,241.917 97.333 C 240.861 97.333,240.167 97.267,240.167 97.167 C 240.167 97.075,240.017 97.000,239.833 97.000 C 239.650 97.000,239.500 96.925,239.500 96.833 C 239.500 96.742,239.367 96.667,239.203 96.667 C 239.040 96.667,238.799 96.517,238.667 96.333 C 238.280 95.797,237.500 96.068,237.500 96.738 C 237.500 96.882,237.425 97.000,237.333 97.000 C 237.242 97.000,237.167 97.225,237.167 97.500 C 237.167 97.775,237.092 98.000,237.000 98.000 C 236.908 98.000,236.833 98.112,236.833 98.250 C 236.833 98.388,236.758 98.500,236.667 98.500 C 236.575 98.500,236.500 98.688,236.500 98.917 C 236.500 99.146,236.425 99.333,236.333 99.333 C 236.077 99.333,236.136 100.660,236.405 100.929 C 236.536 101.060,236.761 101.167,236.905 101.167 C 237.049 101.167,237.167 101.242,237.167 101.333 C 237.167 101.425,237.392 101.500,237.667 101.500 C 237.942 101.500,238.167 101.575,238.167 101.667 C 238.167 101.758,238.392 101.833,238.667 101.833 C 238.942 101.833,239.167 101.908,239.167 102.000 C 239.167 102.105,240.361 102.167,242.417 102.167 C 244.472 102.167,245.667 102.105,245.667 102.000 C 245.667 101.908,245.892 101.833,246.167 101.833 C 246.442 101.833,246.667 101.758,246.667 101.667 C 246.667 101.575,246.817 101.500,247.000 101.500 C 247.183 101.500,247.333 101.425,247.333 101.333 C 247.333 101.242,247.467 101.167,247.630 101.167 C 247.793 101.167,248.035 101.017,248.167 100.833 C 248.299 100.650,248.503 100.500,248.620 100.500 C 248.737 100.500,248.833 100.425,248.833 100.333 C 248.833 100.242,248.918 100.167,249.022 100.167 C 249.278 100.167,249.751 99.600,250.002 98.996 C 250.115 98.723,250.273 98.500,250.354 98.500 C 250.434 98.500,250.500 98.350,250.500 98.167 C 250.500 97.983,250.575 97.833,250.667 97.833 C 250.758 97.833,250.833 97.646,250.833 97.417 C 250.833 97.188,250.908 97.000,251.000 97.000 C 251.092 97.000,251.167 96.775,251.167 96.500 C 251.167 96.225,251.242 96.000,251.333 96.000 C 251.443 96.000,251.500 90.444,251.500 79.667 L 251.500 63.333 248.750 63.333 L 246.000 63.333 246.000 78.833 M274.833 68.000 C 274.833 68.092,275.058 68.167,275.333 68.167 C 275.608 68.167,275.833 68.242,275.833 68.333 C 275.833 68.425,275.983 68.500,276.167 68.500 C 276.350 68.500,276.500 68.575,276.500 68.667 C 276.500 68.758,276.650 68.833,276.833 68.833 C 277.017 68.833,277.167 68.908,277.167 69.000 C 277.167 69.092,277.282 69.167,277.422 69.167 C 277.746 69.167,279.493 71.029,279.821 71.725 C 279.958 72.014,280.110 72.287,280.160 72.333 C 280.357 72.515,280.667 73.176,280.667 73.414 C 280.667 73.553,280.734 73.667,280.817 73.667 C 280.900 73.667,280.994 74.042,281.026 74.500 L 281.083 75.334 272.542 75.333 C 264.111 75.333,264.000 75.329,264.000 75.000 C 264.000 74.817,264.075 74.667,264.167 74.667 C 264.258 74.667,264.333 74.442,264.333 74.167 C 264.333 73.892,264.408 73.667,264.500 73.667 C 264.592 73.667,264.667 73.442,264.667 73.167 C 264.667 72.892,264.742 72.667,264.833 72.667 C 264.925 72.667,265.000 72.517,265.000 72.333 C 265.000 72.150,265.075 72.000,265.167 72.000 C 265.258 72.000,265.333 71.916,265.333 71.813 C 265.333 71.569,267.673 69.167,267.910 69.167 C 268.011 69.167,268.201 69.017,268.333 68.833 C 268.474 68.638,268.765 68.500,269.037 68.500 C 269.292 68.500,269.500 68.425,269.500 68.333 C 269.500 68.242,269.725 68.167,270.000 68.167 C 270.275 68.167,270.500 68.092,270.500 68.000 C 270.500 67.897,271.333 67.833,272.667 67.833 C 274.000 67.833,274.833 67.897,274.833 68.000 M343.833 68.000 C 343.833 68.092,344.133 68.167,344.500 68.167 C 344.867 68.167,345.167 68.242,345.167 68.333 C 345.167 68.425,345.392 68.500,345.667 68.500 C 345.942 68.500,346.167 68.575,346.167 68.667 C 346.167 68.758,346.317 68.833,346.500 68.833 C 346.683 68.833,346.833 68.908,346.833 69.000 C 346.833 69.092,346.946 69.167,347.083 69.167 C 347.220 69.167,347.651 69.467,348.040 69.833 C 348.430 70.200,348.842 70.500,348.957 70.500 C 349.073 70.500,349.167 70.580,349.167 70.679 C 349.167 70.777,349.260 70.956,349.375 71.077 C 349.850 71.577,350.167 72.014,350.167 72.169 C 350.167 72.259,350.242 72.333,350.333 72.333 C 350.425 72.333,350.500 72.483,350.500 72.667 C 350.500 72.850,350.575 73.000,350.667 73.000 C 350.758 73.000,350.833 73.144,350.833 73.319 C 350.833 73.495,350.927 73.670,351.042 73.708 C 351.198 73.760,351.250 74.504,351.250 76.667 C 351.250 78.830,351.198 79.573,351.042 79.625 C 350.927 79.663,350.833 79.913,350.833 80.181 C 350.833 80.448,350.758 80.667,350.667 80.667 C 350.575 80.667,350.500 80.799,350.500 80.960 C 350.500 81.121,350.350 81.347,350.167 81.461 C 349.983 81.576,349.833 81.745,349.833 81.838 C 349.833 82.086,348.044 83.833,347.790 83.833 C 347.671 83.833,347.465 83.983,347.333 84.167 C 347.201 84.350,346.960 84.500,346.797 84.500 C 346.633 84.500,346.500 84.575,346.500 84.667 C 346.500 84.758,346.275 84.833,346.000 84.833 C 345.725 84.833,345.500 84.908,345.500 85.000 C 345.500 85.092,345.281 85.167,345.014 85.167 C 344.747 85.167,344.502 85.245,344.470 85.340 C 344.392 85.574,339.774 85.572,339.696 85.338 C 339.665 85.244,339.420 85.167,339.153 85.167 C 338.885 85.167,338.667 85.092,338.667 85.000 C 338.667 84.908,338.561 84.833,338.432 84.833 C 338.127 84.833,336.841 84.165,336.427 83.792 C 336.249 83.631,336.040 83.500,335.963 83.500 C 335.762 83.500,334.667 82.378,334.667 82.172 C 334.667 82.077,334.592 82.000,334.500 82.000 C 334.408 82.000,334.333 81.887,334.333 81.750 C 334.333 81.612,334.258 81.500,334.167 81.500 C 334.075 81.500,334.000 81.387,334.000 81.250 C 334.000 81.112,333.925 81.000,333.833 81.000 C 333.742 81.000,333.667 80.850,333.667 80.667 C 333.667 80.483,333.592 80.333,333.500 80.333 C 333.408 80.333,333.333 80.108,333.333 79.833 C 333.333 79.558,333.258 79.333,333.167 79.333 C 333.075 79.333,333.000 79.033,333.000 78.667 C 333.000 78.300,332.925 78.000,332.833 78.000 C 332.738 78.000,332.667 77.500,332.667 76.833 C 332.667 76.167,332.738 75.667,332.833 75.667 C 332.925 75.667,333.000 75.292,333.000 74.833 C 333.000 74.375,333.075 74.000,333.167 74.000 C 333.258 74.000,333.333 73.775,333.333 73.500 C 333.333 73.225,333.408 73.000,333.500 73.000 C 333.592 73.000,333.667 72.867,333.667 72.703 C 333.667 72.540,333.817 72.299,334.000 72.167 C 334.183 72.035,334.333 71.867,334.333 71.793 C 334.333 71.557,336.486 69.500,336.733 69.500 C 336.865 69.500,336.997 69.444,337.028 69.375 C 337.108 69.195,338.488 68.500,338.766 68.500 C 338.895 68.500,339.000 68.425,339.000 68.333 C 339.000 68.242,339.337 68.167,339.750 68.167 C 340.162 68.167,340.500 68.092,340.500 68.000 C 340.500 67.900,341.167 67.833,342.167 67.833 C 343.167 67.833,343.833 67.900,343.833 68.000 M379.833 68.000 C 379.833 68.092,380.058 68.167,380.333 68.167 C 380.608 68.167,380.833 68.242,380.833 68.333 C 380.833 68.425,380.931 68.500,381.050 68.500 C 381.357 68.500,382.164 68.892,382.165 69.042 C 382.166 69.110,382.281 69.167,382.420 69.167 C 382.749 69.167,384.833 71.251,384.833 71.580 C 384.833 71.719,384.908 71.833,385.000 71.833 C 385.092 71.833,385.167 71.946,385.167 72.083 C 385.167 72.221,385.242 72.333,385.333 72.333 C 385.425 72.333,385.500 72.483,385.500 72.667 C 385.500 72.850,385.575 73.000,385.667 73.000 C 385.758 73.000,385.833 73.150,385.833 73.333 C 385.833 73.517,385.908 73.667,386.000 73.667 C 386.092 73.667,386.167 74.042,386.167 74.500 L 386.167 75.333 377.583 75.333 C 369.111 75.333,369.000 75.329,369.000 75.000 C 369.000 74.817,369.075 74.667,369.167 74.667 C 369.258 74.667,369.333 74.442,369.333 74.167 C 369.333 73.892,369.408 73.667,369.500 73.667 C 369.592 73.667,369.667 73.442,369.667 73.167 C 369.667 72.892,369.742 72.667,369.833 72.667 C 369.925 72.667,370.000 72.517,370.000 72.333 C 370.000 72.150,370.075 72.000,370.167 72.000 C 370.258 72.000,370.333 71.921,370.333 71.824 C 370.333 71.571,372.664 69.291,373.208 69.012 C 373.460 68.883,373.667 68.715,373.667 68.639 C 373.667 68.562,373.850 68.500,374.073 68.500 C 374.297 68.500,374.527 68.425,374.583 68.333 C 374.640 68.242,374.865 68.167,375.083 68.167 C 375.302 68.167,375.527 68.092,375.583 68.000 C 375.643 67.903,376.557 67.833,377.760 67.833 C 379.031 67.833,379.833 67.898,379.833 68.000 M173.667 80.907 C 173.667 81.776,173.592 82.526,173.500 82.583 C 173.408 82.640,173.333 82.869,173.333 83.093 C 173.333 83.317,173.271 83.500,173.195 83.500 C 173.119 83.500,172.950 83.705,172.820 83.956 C 172.540 84.496,170.915 86.167,170.670 86.167 C 170.577 86.167,170.500 86.242,170.500 86.333 C 170.500 86.425,170.350 86.500,170.167 86.500 C 169.983 86.500,169.833 86.575,169.833 86.667 C 169.833 86.758,169.683 86.833,169.500 86.833 C 169.317 86.833,169.167 86.908,169.167 87.000 C 169.167 87.092,168.942 87.167,168.667 87.167 C 168.392 87.167,168.167 87.242,168.167 87.333 C 168.167 87.428,167.671 87.500,167.014 87.500 C 166.255 87.500,165.828 87.571,165.764 87.708 C 165.686 87.875,165.647 87.875,165.569 87.708 C 165.505 87.571,165.079 87.500,164.319 87.500 C 163.662 87.500,163.167 87.428,163.167 87.333 C 163.167 87.242,163.017 87.167,162.833 87.167 C 162.650 87.167,162.500 87.092,162.500 87.000 C 162.500 86.908,162.350 86.833,162.167 86.833 C 161.983 86.833,161.833 86.758,161.833 86.667 C 161.833 86.575,161.717 86.500,161.576 86.500 C 161.434 86.500,161.134 86.316,160.909 86.091 C 160.684 85.866,160.500 85.566,160.500 85.424 C 160.500 85.283,160.425 85.167,160.333 85.167 C 160.242 85.167,160.167 85.017,160.167 84.833 C 160.167 84.650,160.092 84.500,160.000 84.500 C 159.905 84.500,159.833 84.000,159.833 83.333 C 159.833 82.667,159.905 82.167,160.000 82.167 C 160.092 82.167,160.167 82.052,160.167 81.911 C 160.167 81.342,161.934 80.000,162.682 80.000 C 162.846 80.000,163.027 79.925,163.083 79.833 C 163.140 79.742,163.665 79.667,164.250 79.667 C 164.835 79.667,165.360 79.592,165.417 79.500 C 165.481 79.396,167.057 79.333,169.593 79.333 L 173.667 79.333 173.667 80.907 " stroke="none" fill="#041434" fill-rule="evenodd"></path><path id="path2" d="M58.407 39.907 C 58.585 40.050,58.847 40.161,58.990 40.154 C 59.215 40.142,59.216 40.128,59.000 40.048 C 58.862 39.997,58.600 39.886,58.417 39.802 C 58.089 39.651,58.089 39.652,58.407 39.907 M71.083 48.000 C 71.756 48.689,72.047 48.884,71.645 48.378 C 71.239 47.865,70.685 47.333,70.557 47.333 C 70.488 47.333,70.725 47.633,71.083 48.000 M44.333 97.595 C 44.333 97.648,44.446 97.803,44.583 97.940 C 44.855 98.212,44.889 98.171,44.732 97.764 C 44.637 97.516,44.333 97.388,44.333 97.595 M47.667 101.560 C 47.667 101.732,48.505 102.551,48.592 102.464 C 48.631 102.425,48.439 102.178,48.165 101.915 C 47.891 101.652,47.667 101.493,47.667 101.560 M51.000 104.739 C 51.000 104.778,51.244 104.976,51.542 105.179 L 52.083 105.547 51.632 105.107 C 51.209 104.693,51.000 104.572,51.000 104.739 " stroke="none" fill="#10b85c" fill-rule="evenodd"></path><path id="path3" d="M58.407 39.907 C 58.585 40.050,58.847 40.161,58.990 40.154 C 59.215 40.142,59.216 40.128,59.000 40.048 C 58.862 39.997,58.600 39.886,58.417 39.802 C 58.089 39.651,58.089 39.652,58.407 39.907 M71.083 48.000 C 71.756 48.689,72.047 48.884,71.645 48.378 C 71.239 47.865,70.685 47.333,70.557 47.333 C 70.488 47.333,70.725 47.633,71.083 48.000 M44.333 97.595 C 44.333 97.648,44.446 97.803,44.583 97.940 C 44.855 98.212,44.889 98.171,44.732 97.764 C 44.637 97.516,44.333 97.388,44.333 97.595 M47.667 101.560 C 47.667 101.732,48.505 102.551,48.592 102.464 C 48.631 102.425,48.439 102.178,48.165 101.915 C 47.891 101.652,47.667 101.493,47.667 101.560 M51.000 104.739 C 51.000 104.778,51.244 104.976,51.542 105.179 L 52.083 105.547 51.632 105.107 C 51.209 104.693,51.000 104.572,51.000 104.739 " stroke="none" fill="#10b85c" fill-rule="evenodd"></path><path id="path4" d="M58.407 39.907 C 58.585 40.050,58.847 40.161,58.990 40.154 C 59.215 40.142,59.216 40.128,59.000 40.048 C 58.862 39.997,58.600 39.886,58.417 39.802 C 58.089 39.651,58.089 39.652,58.407 39.907 M71.083 48.000 C 71.756 48.689,72.047 48.884,71.645 48.378 C 71.239 47.865,70.685 47.333,70.557 47.333 C 70.488 47.333,70.725 47.633,71.083 48.000 M44.333 97.595 C 44.333 97.648,44.446 97.803,44.583 97.940 C 44.855 98.212,44.889 98.171,44.732 97.764 C 44.637 97.516,44.333 97.388,44.333 97.595 M47.667 101.560 C 47.667 101.732,48.505 102.551,48.592 102.464 C 48.631 102.425,48.439 102.178,48.165 101.915 C 47.891 101.652,47.667 101.493,47.667 101.560 M51.000 104.739 C 51.000 104.778,51.244 104.976,51.542 105.179 L 52.083 105.547 51.632 105.107 C 51.209 104.693,51.000 104.572,51.000 104.739 " stroke="none" fill="#10b85c" fill-rule="evenodd"></path></g></svg>